# xmcd
#
# Track frame offsets:
#	150
#	9349
#	19037
#	29789
#	41669
#	52595
#	65648
#	77020
#	89818
#	101696
#	114746
#	125743
#	141332
#	156230
#	170290
#	181303
#	191657
#	203040
#	217783
#	231004
#
# Disc length: 3232 seconds
#
# Revision: 1
# Processed by: cddbd v1.5.1PL0 Copyright (c) Steve Scherf et al.
# Submitted via: EasyCDDAExtractor 5.1.0
#
DISCID=150c9e14
DTITLE=Frankie Laine - The Frankie Laine Collection Vol 1
DYEAR=2004
DGENRE=Country
TTITLE0=Rawhide
TTITLE1=Gunfight At The Ok Corral
TTITLE2=Sixteen Tons
TTITLE3=Wanted Man
TTITLE4=High Noon
TTITLE5=Bowie Knife
TTITLE6=Along The Navajo Trail
TTITLE7=Cool Water
TTITLE8=City Boy
TTITLE9=The Cry Of The Wild Goose
TTITLE10=Call Of The Wild
TTITLE11=Rocks And Gravel (Early In The Mornin')
TTITLE12=Misirlou
TTITLE13=Riders In The Sky
TTITLE14=The 3.10 To Yuma
TTITLE15=The Hanging Tree
TTITLE16=Mule Train
TTITLE17=On The Trail
TTITLE18=Moonlight Gambler
TTITLE19=North To Alaska
EXTD=
EXTT0=
EXTT1=
EXTT2=
EXTT3=
EXTT4=
EXTT5=
EXTT6=
EXTT7=
EXTT8=
EXTT9=
EXTT10=
EXTT11=
EXTT12=
EXTT13=
EXTT14=
EXTT15=
EXTT16=
EXTT17=
EXTT18=
EXTT19=
PLAYORDER=
